# xmcd
#
# Track frame offsets:
# 150
# 1713
# 19141
# 33694
# 54469
# 69903
# 81021
# 100955
# 112564
# 127045
# 142878
# 155618
# 170905
# 181412
# 194018
# 209769
# 218324
# 230021
#
# Disc length: 3166 seconds
#
#
# Revision: 0
# Processed by: cddbd v1.5.2PL0 Copyright (c) Steve Scherf et al.
# Submitted via: FreeRIP 2.945 
#
DISCID=f60c5c12
DTITLE=Pink Flowers - Tune In!
DYEAR=1900
DGENRE=
TTITLE0=Whales Talking Blues
TTITLE1=Nefertari
TTITLE2=One Thing Missing
TTITLE3=Falling Angel
TTITLE4=Lilly
TTITLE5=Paralysed
TTITLE6=Don't Let Me Beg For Another Day
TTITLE7=So Long (I knew you well)
TTITLE8=11 NY Dancing
TTITLE9=Here he Comes
TTITLE10=Wide And Lonely
TTITLE11=Sing For Me Sandy
TTITLE12=You Got Me Under
TTITLE13=Swan-Song
TTITLE14=All I Want Is You
TTITLE15=Loose, Losing
TTITLE16=Tune In!
TTITLE17=Tomorrow
EXTD=
EXTT0=
EXTT1=
EXTT2=
EXTT3=
EXTT4=
EXTT5=
EXTT6=
EXTT7=
EXTT8=
EXTT9=
EXTT10=
EXTT11=
EXTT12=
EXTT13=
EXTT14=
EXTT15=
EXTT16=
EXTT17=
PLAYORDER=
